<svg width="48" height="48" viewBox="0 0 48 48" fill="none" xmlns="http://www.w3.org/2000/svg">
<path d="M6.05 28.95C5.75 28.95 5.5 28.85 5.3 28.65C5.1 28.45 5 28.2 5 27.9C5 27.6 5.1 27.35 5.3 27.15C5.5 26.95 5.75 26.85 6.05 26.85C6.35 26.85 6.6 26.95 6.8 27.15C7 27.35 7.1 27.6 7.1 27.9C7.1 28.2 7 28.45 6.8 28.65C6.6 28.85 6.35 28.95 6.05 28.95ZM6.05 21.15C5.75 21.15 5.5 21.05 5.3 20.85C5.1 20.65 5 20.4 5 20.1C5 19.8 5.1 19.55 5.3 19.35C5.5 19.15 5.75 19.05 6.05 19.05C6.35 19.05 6.6 19.15 6.8 19.35C7 19.55 7.1 19.8 7.1 20.1C7.1 20.4 7 20.65 6.8 20.85C6.6 21.05 6.35 21.15 6.05 21.15ZM12 37.9C11.4667 37.9 11.0167 37.7167 10.65 37.35C10.2833 36.9833 10.1 36.5333 10.1 36C10.1 35.4667 10.2833 35.0167 10.65 34.65C11.0167 34.2833 11.4667 34.1 12 34.1C12.5333 34.1 12.9833 34.2833 13.35 34.65C13.7167 35.0167 13.9 35.4667 13.9 36C13.9 36.5333 13.7167 36.9833 13.35 37.35C12.9833 37.7167 12.5333 37.9 12 37.9ZM12 29.8C11.4667 29.8 11.0167 29.6167 10.65 29.25C10.2833 28.8833 10.1 28.4333 10.1 27.9C10.1 27.3667 10.2833 26.9167 10.65 26.55C11.0167 26.1833 11.4667 26 12 26C12.5333 26 12.9833 26.1833 13.35 26.55C13.7167 26.9167 13.9 27.3667 13.9 27.9C13.9 28.4333 13.7167 28.8833 13.35 29.25C12.9833 29.6167 12.5333 29.8 12 29.8ZM12 22C11.4667 22 11.0167 21.8167 10.65 21.45C10.2833 21.0833 10.1 20.6333 10.1 20.1C10.1 19.5667 10.2833 19.1167 10.65 18.75C11.0167 18.3833 11.4667 18.2 12 18.2C12.5333 18.2 12.9833 18.3833 13.35 18.75C13.7167 19.1167 13.9 19.5667 13.9 20.1C13.9 20.6333 13.7167 21.0833 13.35 21.45C12.9833 21.8167 12.5333 22 12 22ZM12 13.9C11.4667 13.9 11.0167 13.7167 10.65 13.35C10.2833 12.9833 10.1 12.5333 10.1 12C10.1 11.4667 10.2833 11.0167 10.65 10.65C11.0167 10.2833 11.4667 10.1 12 10.1C12.5333 10.1 12.9833 10.2833 13.35 10.65C13.7167 11.0167 13.9 11.4667 13.9 12C13.9 12.5333 13.7167 12.9833 13.35 13.35C12.9833 13.7167 12.5333 13.9 12 13.9ZM20.1 30.6C19.3667 30.6 18.7333 30.3333 18.2 29.8C17.6667 29.2667 17.4 28.6333 17.4 27.9C17.4 27.1333 17.6667 26.4917 18.2 25.975C18.7333 25.4583 19.3667 25.2 20.1 25.2C20.8667 25.2 21.5083 25.4583 22.025 25.975C22.5417 26.4917 22.8 27.1333 22.8 27.9C22.8 28.6333 22.5417 29.2667 22.025 29.8C21.5083 30.3333 20.8667 30.6 20.1 30.6ZM20.1 22.8C19.3667 22.8 18.7333 22.5333 18.2 22C17.6667 21.4667 17.4 20.8333 17.4 20.1C17.4 19.3333 17.6667 18.6917 18.2 18.175C18.7333 17.6583 19.3667 17.4 20.1 17.4C20.8667 17.4 21.5083 17.6583 22.025 18.175C22.5417 18.6917 22.8 19.3333 22.8 20.1C22.8 20.8333 22.5417 21.4667 22.025 22C21.5083 22.5333 20.8667 22.8 20.1 22.8ZM20.1 37.9C19.5667 37.9 19.1167 37.7167 18.75 37.35C18.3833 36.9833 18.2 36.5333 18.2 36C18.2 35.4667 18.3833 35.0167 18.75 34.65C19.1167 34.2833 19.5667 34.1 20.1 34.1C20.6333 34.1 21.0833 34.2833 21.45 34.65C21.8167 35.0167 22 35.4667 22 36C22 36.5333 21.8167 36.9833 21.45 37.35C21.0833 37.7167 20.6333 37.9 20.1 37.9ZM20.1 13.9C19.5667 13.9 19.1167 13.7167 18.75 13.35C18.3833 12.9833 18.2 12.5333 18.2 12C18.2 11.4667 18.3833 11.0167 18.75 10.65C19.1167 10.2833 19.5667 10.1 20.1 10.1C20.6333 10.1 21.0833 10.2833 21.45 10.65C21.8167 11.0167 22 11.4667 22 12C22 12.5333 21.8167 12.9833 21.45 13.35C21.0833 13.7167 20.6333 13.9 20.1 13.9ZM20.1 43C19.8 43 19.55 42.9 19.35 42.7C19.15 42.5 19.05 42.25 19.05 41.95C19.05 41.65 19.15 41.4 19.35 41.2C19.55 41 19.8 40.9 20.1 40.9C20.4 40.9 20.65 41 20.85 41.2C21.05 41.4 21.15 41.65 21.15 41.95C21.15 42.25 21.05 42.5 20.85 42.7C20.65 42.9 20.4 43 20.1 43ZM20.1 7.1C19.8 7.1 19.55 7 19.35 6.8C19.15 6.6 19.05 6.35 19.05 6.05C19.05 5.75 19.15 5.5 19.35 5.3C19.55 5.1 19.8 5 20.1 5C20.4 5 20.65 5.1 20.85 5.3C21.05 5.5 21.15 5.75 21.15 6.05C21.15 6.35 21.05 6.6 20.85 6.8C20.65 7 20.4 7.1 20.1 7.1ZM27.9 30.6C27.1667 30.6 26.5333 30.3333 26 29.8C25.4667 29.2667 25.2 28.6333 25.2 27.9C25.2 27.1333 25.4667 26.4917 26 25.975C26.5333 25.4583 27.1667 25.2 27.9 25.2C28.6667 25.2 29.3083 25.4583 29.825 25.975C30.3417 26.4917 30.6 27.1333 30.6 27.9C30.6 28.6333 30.3417 29.2667 29.825 29.8C29.3083 30.3333 28.6667 30.6 27.9 30.6ZM27.9 22.8C27.1667 22.8 26.5333 22.5333 26 22C25.4667 21.4667 25.2 20.8333 25.2 20.1C25.2 19.3333 25.4667 18.6917 26 18.175C26.5333 17.6583 27.1667 17.4 27.9 17.4C28.6667 17.4 29.3083 17.6583 29.825 18.175C30.3417 18.6917 30.6 19.3333 30.6 20.1C30.6 20.8333 30.3417 21.4667 29.825 22C29.3083 22.5333 28.6667 22.8 27.9 22.8ZM27.9 37.9C27.3667 37.9 26.9167 37.7167 26.55 37.35C26.1833 36.9833 26 36.5333 26 36C26 35.4667 26.1833 35.0167 26.55 34.65C26.9167 34.2833 27.3667 34.1 27.9 34.1C28.4333 34.1 28.8833 34.2833 29.25 34.65C29.6167 35.0167 29.8 35.4667 29.8 36C29.8 36.5333 29.6167 36.9833 29.25 37.35C28.8833 37.7167 28.4333 37.9 27.9 37.9ZM27.9 13.9C27.3667 13.9 26.9167 13.7167 26.55 13.35C26.1833 12.9833 26 12.5333 26 12C26 11.4667 26.1833 11.0167 26.55 10.65C26.9167 10.2833 27.3667 10.1 27.9 10.1C28.4333 10.1 28.8833 10.2833 29.25 10.65C29.6167 11.0167 29.8 11.4667 29.8 12C29.8 12.5333 29.6167 12.9833 29.25 13.35C28.8833 13.7167 28.4333 13.9 27.9 13.9ZM27.9 7.1C27.6 7.1 27.35 7 27.15 6.8C26.95 6.6 26.85 6.35 26.85 6.05C26.85 5.75 26.95 5.5 27.15 5.3C27.35 5.1 27.6 5 27.9 5C28.2 5 28.45 5.1 28.65 5.3C28.85 5.5 28.95 5.75 28.95 6.05C28.95 6.35 28.85 6.6 28.65 6.8C28.45 7 28.2 7.1 27.9 7.1ZM28.2 43C27.9 43 27.65 42.9 27.45 42.7C27.25 42.5 27.15 42.25 27.15 41.95C27.15 41.65 27.25 41.4 27.45 41.2C27.65 41 27.9 40.9 28.2 40.9C28.5 40.9 28.75 41 28.95 41.2C29.15 41.4 29.25 41.65 29.25 41.95C29.25 42.25 29.15 42.5 28.95 42.7C28.75 42.9 28.5 43 28.2 43ZM36 37.9C35.4667 37.9 35.0167 37.7167 34.65 37.35C34.2833 36.9833 34.1 36.5333 34.1 36C34.1 35.4667 34.2833 35.0167 34.65 34.65C35.0167 34.2833 35.4667 34.1 36 34.1C36.5333 34.1 36.9833 34.2833 37.35 34.65C37.7167 35.0167 37.9 35.4667 37.9 36C37.9 36.5333 37.7167 36.9833 37.35 37.35C36.9833 37.7167 36.5333 37.9 36 37.9ZM36 29.8C35.4667 29.8 35.0167 29.6167 34.65 29.25C34.2833 28.8833 34.1 28.4333 34.1 27.9C34.1 27.3667 34.2833 26.9167 34.65 26.55C35.0167 26.1833 35.4667 26 36 26C36.5333 26 36.9833 26.1833 37.35 26.55C37.7167 26.9167 37.9 27.3667 37.9 27.9C37.9 28.4333 37.7167 28.8833 37.35 29.25C36.9833 29.6167 36.5333 29.8 36 29.8ZM36 22C35.4667 22 35.0167 21.8167 34.65 21.45C34.2833 21.0833 34.1 20.6333 34.1 20.1C34.1 19.5667 34.2833 19.1167 34.65 18.75C35.0167 18.3833 35.4667 18.2 36 18.2C36.5333 18.2 36.9833 18.3833 37.35 18.75C37.7167 19.1167 37.9 19.5667 37.9 20.1C37.9 20.6333 37.7167 21.0833 37.35 21.45C36.9833 21.8167 36.5333 22 36 22ZM36 13.9C35.4667 13.9 35.0167 13.7167 34.65 13.35C34.2833 12.9833 34.1 12.5333 34.1 12C34.1 11.4667 34.2833 11.0167 34.65 10.65C35.0167 10.2833 35.4667 10.1 36 10.1C36.5333 10.1 36.9833 10.2833 37.35 10.65C37.7167 11.0167 37.9 11.4667 37.9 12C37.9 12.5333 37.7167 12.9833 37.35 13.35C36.9833 13.7167 36.5333 13.9 36 13.9ZM41.95 28.95C41.65 28.95 41.4 28.85 41.2 28.65C41 28.45 40.9 28.2 40.9 27.9C40.9 27.6 41 27.35 41.2 27.15C41.4 26.95 41.65 26.85 41.95 26.85C42.25 26.85 42.5 26.95 42.7 27.15C42.9 27.35 43 27.6 43 27.9C43 28.2 42.9 28.45 42.7 28.65C42.5 28.85 42.25 28.95 41.95 28.95ZM41.95 21.15C41.65 21.15 41.4 21.05 41.2 20.85C41 20.65 40.9 20.4 40.9 20.1C40.9 19.8 41 19.55 41.2 19.35C41.4 19.15 41.65 19.05 41.95 19.05C42.25 19.05 42.5 19.15 42.7 19.35C42.9 19.55 43 19.8 43 20.1C43 20.4 42.9 20.65 42.7 20.85C42.5 21.05 42.25 21.15 41.95 21.15Z" fill="#959AA5"/>
</svg>
