<svg width="48" height="48" viewBox="0 0 48 48" fill="none" xmlns="http://www.w3.org/2000/svg">
<path d="M7.04999 40C6.24999 40 5.54999 39.6917 4.94999 39.075C4.34999 38.4583 4.04999 37.7667 4.04999 37V11C4.04999 10.2333 4.34999 9.54167 4.94999 8.925C5.54999 8.30833 6.24999 8 7.04999 8H21.05L24.05 11H41.05C41.8167 11 42.5083 11.3083 43.125 11.925C43.7417 12.5417 44.05 13.2333 44.05 14V37C44.05 37.7667 43.7417 38.4583 43.125 39.075C42.5083 39.6917 41.8167 40 41.05 40H7.04999ZM7.04999 11V37H41.05V14H22.8L19.8 11H7.04999ZM7.04999 11V37V11Z" fill="#959AA5"/>
</svg>
