<svg width="27" height="30" viewBox="0 0 27 30" fill="none" xmlns="http://www.w3.org/2000/svg">
<path fill-rule="evenodd" clip-rule="evenodd" d="M4.5 6C3.67157 6 3 5.32843 3 4.5C3 3.67157 3.67157 3 4.5 3C5.32843 3 6 3.67157 6 4.5C6 5.32843 5.32843 6 4.5 6ZM0 4.5C0 2.01472 2.01472 0 4.5 0C6.98528 0 9 2.01472 9 4.5C9 4.5128 8.99995 4.52559 8.99984 4.53837L20.2553 10.599C20.916 10.218 21.6825 10 22.5 10C24.9853 10 27 12.0147 27 14.5C27 16.9853 24.9853 19 22.5 19C21.7994 19 21.1362 18.8399 20.545 18.5543L8.99869 25.6095C8.94054 28.0442 6.94867 30 4.5 30C2.01472 30 0 27.9853 0 25.5C0 23.5407 1.25221 21.8738 3 21.2561V8.74394C1.25221 8.12619 0 6.45933 0 4.5ZM18.3913 12.6619L8.14232 7.14317C7.55131 7.95619 6.69473 8.56369 5.7 8.83823L5.7 21.1618C6.72627 21.445 7.6055 22.0827 8.19774 22.9348L18.5303 16.6212C18.1919 15.9892 18 15.267 18 14.5C18 13.8452 18.1399 13.2231 18.3913 12.6619ZM22.5 16C21.6716 16 21 15.3284 21 14.5C21 13.6716 21.6716 13 22.5 13C23.3284 13 24 13.6716 24 14.5C24 15.3284 23.3284 16 22.5 16ZM3 25.5C3 26.3284 3.67157 27 4.5 27C5.32843 27 6 26.3284 6 25.5C6 24.6716 5.32843 24 4.5 24C3.67157 24 3 24.6716 3 25.5Z" fill="#959AA5"/>
</svg>
