<svg width="48" height="48" viewBox="0 0 48 48" fill="none" xmlns="http://www.w3.org/2000/svg">
<path d="M11 32C10.2 32 9.5 31.7 8.9 31.1C8.3 30.5 8 29.8 8 29V21.85H11V29H37V21.85H40V29C40 29.8 39.7 30.5 39.1 31.1C38.5 31.7 37.8 32 37 32H11ZM24 24.35L14.35 14.7L16.5 12.55L22.5 18.55V0H25.5V18.55L31.5 12.55L33.65 14.7L24 24.35Z" fill="#959AA5"/>
<path d="M12.7168 41.876V35.0469H15.1094V41.876C15.1094 42.5413 14.9567 43.1178 14.6514 43.6055C14.3506 44.0931 13.9404 44.4714 13.4209 44.7402C12.9059 45.0046 12.3271 45.1367 11.6846 45.1367C11.0192 45.1367 10.4268 45.0251 9.90723 44.8018C9.39225 44.5785 8.98665 44.2344 8.69043 43.7695C8.39876 43.3047 8.25293 42.7122 8.25293 41.9922H10.6592C10.6592 42.3294 10.6979 42.5938 10.7754 42.7852C10.8529 42.972 10.9668 43.1042 11.1172 43.1816C11.2721 43.2546 11.4613 43.291 11.6846 43.291C11.9033 43.291 12.0879 43.2363 12.2383 43.127C12.3932 43.013 12.5117 42.8512 12.5938 42.6416C12.6758 42.4274 12.7168 42.1722 12.7168 41.876ZM20.4004 42.9219C20.4004 42.7943 20.3571 42.6849 20.2705 42.5938C20.1885 42.498 20.0426 42.4115 19.833 42.334C19.6234 42.252 19.3294 42.1699 18.9512 42.0879C18.5911 42.0104 18.2516 41.9079 17.9326 41.7803C17.6182 41.6527 17.3424 41.4977 17.1055 41.3154C16.8685 41.1331 16.6816 40.9167 16.5449 40.666C16.4128 40.4154 16.3467 40.1283 16.3467 39.8047C16.3467 39.4902 16.4128 39.194 16.5449 38.916C16.6816 38.6335 16.8799 38.3851 17.1396 38.1709C17.404 37.9521 17.7253 37.7812 18.1035 37.6582C18.4818 37.5306 18.9124 37.4668 19.3955 37.4668C20.0609 37.4668 20.6351 37.5693 21.1182 37.7744C21.6012 37.9749 21.9727 38.2575 22.2324 38.6221C22.4967 38.9821 22.6289 39.3991 22.6289 39.873H20.3252C20.3252 39.6862 20.2933 39.5267 20.2295 39.3945C20.1702 39.2624 20.0723 39.1621 19.9355 39.0938C19.7988 39.0208 19.6165 38.9844 19.3887 38.9844C19.2292 38.9844 19.0833 39.014 18.9512 39.0732C18.8236 39.1325 18.721 39.2145 18.6436 39.3193C18.5661 39.4242 18.5273 39.5472 18.5273 39.6885C18.5273 39.7887 18.5501 39.8799 18.5957 39.9619C18.6458 40.0394 18.721 40.1123 18.8213 40.1807C18.9215 40.2445 19.0492 40.3037 19.2041 40.3584C19.359 40.4085 19.5459 40.4541 19.7646 40.4951C20.2614 40.5863 20.7262 40.7161 21.1592 40.8848C21.5921 41.0534 21.943 41.2926 22.2119 41.6025C22.4854 41.9124 22.6221 42.3294 22.6221 42.8535C22.6221 43.1816 22.5469 43.4847 22.3965 43.7627C22.2461 44.0361 22.0296 44.2777 21.7471 44.4873C21.4645 44.6924 21.125 44.8519 20.7285 44.9658C20.332 45.0798 19.8854 45.1367 19.3887 45.1367C18.6823 45.1367 18.0853 45.0114 17.5977 44.7607C17.11 44.5055 16.7409 44.1865 16.4902 43.8037C16.2441 43.4163 16.1211 43.0244 16.1211 42.6279H18.2676C18.2767 42.8558 18.3314 43.0426 18.4316 43.1885C18.5365 43.3343 18.6755 43.4414 18.8486 43.5098C19.0218 43.5781 19.2223 43.6123 19.4502 43.6123C19.6598 43.6123 19.833 43.5827 19.9697 43.5234C20.111 43.4642 20.2181 43.3844 20.291 43.2842C20.3639 43.1794 20.4004 43.0586 20.4004 42.9219ZM23.415 41.377V41.2334C23.415 40.6911 23.4925 40.1921 23.6475 39.7363C23.8024 39.276 24.0303 38.8773 24.3311 38.54C24.6318 38.2028 25.0033 37.9408 25.4453 37.7539C25.8874 37.5625 26.3978 37.4668 26.9766 37.4668C27.5599 37.4668 28.0726 37.5625 28.5146 37.7539C28.9613 37.9408 29.335 38.2028 29.6357 38.54C29.9365 38.8773 30.1644 39.276 30.3193 39.7363C30.4743 40.1921 30.5518 40.6911 30.5518 41.2334V41.377C30.5518 41.9147 30.4743 42.4137 30.3193 42.874C30.1644 43.3298 29.9365 43.7285 29.6357 44.0703C29.335 44.4076 28.9635 44.6696 28.5215 44.8564C28.0794 45.0433 27.569 45.1367 26.9902 45.1367C26.4115 45.1367 25.8988 45.0433 25.4521 44.8564C25.0055 44.6696 24.6318 44.4076 24.3311 44.0703C24.0303 43.7285 23.8024 43.3298 23.6475 42.874C23.4925 42.4137 23.415 41.9147 23.415 41.377ZM25.7188 41.2334V41.377C25.7188 41.6549 25.7393 41.9147 25.7803 42.1562C25.8213 42.3978 25.8896 42.6097 25.9854 42.792C26.0811 42.9697 26.2109 43.1087 26.375 43.209C26.5391 43.3092 26.7441 43.3594 26.9902 43.3594C27.2318 43.3594 27.4323 43.3092 27.5918 43.209C27.7559 43.1087 27.8857 42.9697 27.9814 42.792C28.0771 42.6097 28.1455 42.3978 28.1865 42.1562C28.2275 41.9147 28.248 41.6549 28.248 41.377V41.2334C28.248 40.9645 28.2275 40.7116 28.1865 40.4746C28.1455 40.2331 28.0771 40.0212 27.9814 39.8389C27.8857 39.652 27.7559 39.5062 27.5918 39.4014C27.4277 39.2965 27.2227 39.2441 26.9766 39.2441C26.735 39.2441 26.5322 39.2965 26.3682 39.4014C26.2087 39.5062 26.0811 39.652 25.9854 39.8389C25.8896 40.0212 25.8213 40.2331 25.7803 40.4746C25.7393 40.7116 25.7188 40.9645 25.7188 41.2334ZM33.8398 39.1826V45H31.5361V37.6035H33.6963L33.8398 39.1826ZM33.5664 41.0488L33.0264 41.0625C33.0264 40.4974 33.0947 39.9938 33.2314 39.5518C33.3682 39.1051 33.5618 38.7269 33.8125 38.417C34.0632 38.1071 34.3617 37.8724 34.708 37.7129C35.0589 37.5488 35.4486 37.4668 35.877 37.4668C36.2188 37.4668 36.5309 37.5169 36.8135 37.6172C37.1006 37.7174 37.3467 37.8792 37.5518 38.1025C37.7614 38.3258 37.9209 38.6221 38.0303 38.9912C38.1442 39.3558 38.2012 39.807 38.2012 40.3447V45H35.8838V40.3379C35.8838 40.0417 35.8428 39.8161 35.7607 39.6611C35.6787 39.5016 35.5602 39.3923 35.4053 39.333C35.2503 39.2738 35.0612 39.2441 34.8379 39.2441C34.6009 39.2441 34.4004 39.2897 34.2363 39.3809C34.0723 39.472 33.9401 39.5996 33.8398 39.7637C33.7441 39.9232 33.6735 40.1123 33.6279 40.3311C33.5869 40.5498 33.5664 40.7891 33.5664 41.0488Z" fill="#959AA5"/>
</svg>
